<svg width="19" height="19" viewBox="0 0 19 19" fill="none" xmlns="http://www.w3.org/2000/svg">
<path d="M6.57044 16.3954L0.625417 10.4504C0.319042 10.144 0.319042 9.64764 0.625417 9.34127L2.21627 7.75041C2.52265 7.44404 3.01902 7.44404 3.3254 7.75041L9.27042 13.6954C9.57679 14.0018 9.57679 14.4982 9.27042 14.8046L7.67956 16.3954C7.37319 16.7014 6.87681 16.7014 6.57044 16.3954Z" fill="#00FF66"/>
<path d="M4.97958 13.6954L15.6746 3.00041C15.981 2.69404 16.4774 2.69404 16.7837 3.00041L18.3746 4.59127C18.681 4.89764 18.681 5.39402 18.3746 5.70039L7.67956 16.3954C7.37319 16.7018 6.87681 16.7018 6.57044 16.3954L4.97958 14.8046C4.6736 14.4982 4.6736 14.0018 4.97958 13.6954Z" fill="#00FF66"/>
</svg>
