<svg width="20" height="20" viewBox="0 0 20 20" fill="none" xmlns="http://www.w3.org/2000/svg">
<path d="M0.281352 18.8013C0.646454 17.6158 1.24348 15.3825 1.59335 14.5321C1.87607 13.846 2.14016 13.1564 2.46463 12.8314C2.7891 12.507 3.34099 12.5324 3.67393 12.8642C3.67393 12.8642 5.06719 13.8093 5.56659 14.4345C6.19184 14.9322 7.13817 16.3287 7.13817 16.3287C7.47111 16.6616 7.4965 17.2129 7.17203 17.5379C6.84699 17.8624 6.15742 18.1265 5.47066 18.4091C4.62083 18.759 2.38676 19.3548 1.20116 19.7211C0.998579 19.7831 0.219278 19.0039 0.281352 18.8013Z" fill="#656565"/>
<path d="M12.4584 2.83837C11.8089 3.48783 11.8089 4.54018 12.4584 5.18964L14.8098 7.54148C15.4594 8.19038 16.5129 8.19038 17.1613 7.54148L19.5133 5.18964C20.1622 4.54018 20.1622 3.48783 19.5133 2.83837L17.1618 0.487098C16.5129 -0.162366 15.4599 -0.162366 14.8104 0.487098L12.4584 2.83837Z" fill="#656565"/>
<path d="M2.46463 12.8314L4.81776 15.1844L7.16695 17.5345L15.9858 8.71683L11.2824 4.01428L2.46463 12.8314Z" fill="#656565"/>
<path d="M2.05551 19.4587C2.05551 19.4587 0.526819 20.2988 0.113751 19.8858C-0.299317 19.4728 0.545441 17.9476 0.545441 17.9476C0.545441 17.9476 1.99344 17.9747 2.05551 19.4587Z" fill="#656565"/>
<path d="M18.9253 5.7776L14.2218 1.07449L11.283 4.01372L15.9858 8.71683L18.9253 5.7776Z" fill="#656565"/>
<path d="M18.3373 6.36499L13.6344 1.66245L13.0464 2.2504L17.7493 6.95295L18.3373 6.36499ZM17.1618 7.54204L12.4584 2.83893L11.8704 3.42689L16.5738 8.12943L17.1618 7.54204Z" fill="#656565"/>
</svg>
