<svg width="50" height="50" viewBox="0 0 50 50" fill="none" xmlns="http://www.w3.org/2000/svg">
<path d="M0 43.3333C0 47.015 2.63382 50 5.88235 50H41.1765C44.425 50 47.0588 47.015 47.0588 43.3333V15C47.0588 11.3183 44.425 8.33333 41.1765 8.33333H27.9412C22.7029 8.33333 23.5294 0 15.5324 0H5.88235C2.63382 0 0 2.985 0 6.66667V43.3333Z" fill="#989898"/>
<path d="M44.1176 11.6667H34.4676C26.4706 11.6667 27.2971 20 22.0588 20H8.82353C5.575 20 2.94118 22.985 2.94118 26.6667V43.3333C2.94118 44.255 2.28235 45 1.47059 45C0.658824 45 0 44.255 0 43.3333C0 47.015 2.63382 50 5.88235 50H44.1176C47.3662 50 50 47.015 50 43.3333V18.3333C50 14.6517 47.3662 11.6667 44.1176 11.6667Z" fill="#DDDDDD"/>
</svg>
