<svg width="24" height="26" viewBox="0 0 24 26" fill="none" xmlns="http://www.w3.org/2000/svg">
<path d="M5.953 10.717C6.502 9.323 7.187 7.856 8.128 6.575C6.95 5.064 5.351 4 3 4H0V8H3C4.307 8 5.119 8.896 5.953 10.717ZM12.48 16.141C12.002 17.455 11.421 18.918 10.628 20.273C11.718 21.318 13.117 22 15 22H18V18H15C13.918 18 13.178 17.38 12.48 16.141Z" fill="#656565"/>
<path d="M3 22H0V18H3C4.884 18 5.739 16.184 7.117 12.327C8.441 8.617 10.09 4 15 4H18V8H15C13.115 8 12.261 9.817 10.883 13.673C9.559 17.383 7.91 22 3 22Z" fill="#656565"/>
<path d="M23.2 6L16 0V12L23.2 6ZM23.2 20L16 14V26L23.2 20Z" fill="#656565"/>
</svg>
